<svg xmlns="http://www.w3.org/2000/svg" viewBox="0 0 1400 620" role="img" aria-label="Aromatic biryani bowl with herbs and spices">
  <defs>
    <linearGradient id="bg" x1="0" y1="0" x2="1" y2="1">
      <stop offset="0" stop-color="#111827"/>
      <stop offset=".5" stop-color="#183b3a"/>
      <stop offset="1" stop-color="#5a2b12"/>
    </linearGradient>
    <radialGradient id="glow" cx=".76" cy=".38" r=".5">
      <stop offset="0" stop-color="#f59e0b" stop-opacity=".48"/>
      <stop offset="1" stop-color="#f59e0b" stop-opacity="0"/>
    </radialGradient>
    <filter id="shadow" x="-20%" y="-20%" width="140%" height="140%">
      <feDropShadow dx="0" dy="28" stdDeviation="23" flood-color="#050712" flood-opacity=".36"/>
    </filter>
  </defs>
  <rect width="1400" height="620" fill="url(#bg)"/>
  <rect width="1400" height="620" fill="url(#glow)"/>
  <g opacity=".12" stroke="#fff" stroke-width="2">
    <path d="M948 86c58 36 66 82 24 138M1158 122c-44 44-46 92-6 144M1044 376c72 26 91 74 56 142" fill="none"/>
  </g>
  <g filter="url(#shadow)" transform="translate(760 96)">
    <ellipse cx="250" cy="292" rx="250" ry="118" fill="#f8fafc"/>
    <ellipse cx="250" cy="256" rx="210" ry="122" fill="#fed7aa"/>
    <g stroke-linecap="round" stroke-width="14">
      <path d="M91 241c70-52 153-57 242-15" stroke="#f59e0b"/>
      <path d="M128 286c66-47 148-48 248-5" stroke="#fff7ed"/>
      <path d="M165 210c54-34 108-35 166-5" stroke="#ea580c"/>
      <path d="M222 326c46-21 92-19 140 5" stroke="#f59e0b"/>
    </g>
    <g fill="#16a34a">
      <ellipse cx="142" cy="230" rx="18" ry="8" transform="rotate(-28 142 230)"/>
      <ellipse cx="314" cy="254" rx="18" ry="8" transform="rotate(24 314 254)"/>
      <ellipse cx="232" cy="300" rx="17" ry="8" transform="rotate(-16 232 300)"/>
    </g>
    <circle cx="358" cy="224" r="20" fill="#dc2626"/>
    <circle cx="180" cy="280" r="18" fill="#dc2626"/>
  </g>
  <g filter="url(#shadow)" transform="translate(1084 112)">
    <circle cx="66" cy="66" r="62" fill="#fff7ed"/>
    <circle cx="66" cy="66" r="40" fill="#f97316"/>
    <path d="M44 66h44M66 44v44" stroke="#7c2d12" stroke-width="9" stroke-linecap="round"/>
  </g>
</svg>
