<svg xmlns="http://www.w3.org/2000/svg" viewBox="0 0 1400 620" role="img" aria-label="Hot pizza slices and fresh ingredients">
  <defs>
    <linearGradient id="bg" x1="0" y1="0" x2="1" y2="1">
      <stop offset="0" stop-color="#121a2c"/>
      <stop offset=".55" stop-color="#3b2315"/>
      <stop offset="1" stop-color="#0f3d38"/>
    </linearGradient>
    <radialGradient id="warm" cx=".72" cy=".46" r=".5">
      <stop offset="0" stop-color="#fb923c" stop-opacity=".58"/>
      <stop offset="1" stop-color="#fb923c" stop-opacity="0"/>
    </radialGradient>
    <filter id="shadow" x="-20%" y="-20%" width="140%" height="140%">
      <feDropShadow dx="0" dy="30" stdDeviation="24" flood-color="#050712" flood-opacity=".36"/>
    </filter>
  </defs>
  <rect width="1400" height="620" fill="url(#bg)"/>
  <rect width="1400" height="620" fill="url(#warm)"/>
  <g opacity=".14" fill="#fff">
    <circle cx="114" cy="112" r="5"/><circle cx="250" cy="470" r="4"/><circle cx="548" cy="84" r="6"/><circle cx="1248" cy="116" r="5"/>
    <circle cx="1260" cy="482" r="4"/><circle cx="704" cy="522" r="5"/><circle cx="420" cy="326" r="3"/>
  </g>
  <g filter="url(#shadow)" transform="translate(744 76)">
    <circle cx="260" cy="238" r="220" fill="#f59e0b"/>
    <circle cx="260" cy="238" r="190" fill="#fde68a"/>
    <path d="M260 238 112 72a220 220 0 0 1 334 18z" fill="#f97316"/>
    <path d="M260 238 450 356a220 220 0 0 1-356 23z" fill="#f97316"/>
    <g fill="#dc2626">
      <circle cx="228" cy="130" r="24"/><circle cx="330" cy="188" r="22"/><circle cx="185" cy="282" r="23"/><circle cx="346" cy="334" r="25"/>
    </g>
    <g fill="#16a34a">
      <circle cx="166" cy="176" r="12"/><circle cx="386" cy="260" r="11"/><circle cx="263" cy="352" r="13"/>
    </g>
    <path d="M90 236h340M260 66v344" stroke="#fff7ed" stroke-width="8" opacity=".5"/>
  </g>
  <g filter="url(#shadow)" transform="translate(1070 380)">
    <rect x="0" y="0" width="190" height="88" rx="8" fill="#fff7ed"/>
    <rect x="18" y="20" width="154" height="14" rx="7" fill="#f97316"/>
    <rect x="18" y="52" width="110" height="10" rx="5" fill="#0f766e"/>
  </g>
</svg>
