<svg xmlns="http://www.w3.org/2000/svg" viewBox="0 0 1400 620" role="img" aria-label="A colorful spread of fresh food bowls and plates">
  <defs>
    <linearGradient id="bg" x1="0" y1="0" x2="1" y2="1">
      <stop offset="0" stop-color="#192339"/>
      <stop offset=".52" stop-color="#12343b"/>
      <stop offset="1" stop-color="#512313"/>
    </linearGradient>
    <radialGradient id="glow1" cx=".74" cy=".28" r=".44">
      <stop offset="0" stop-color="#ff8a4c" stop-opacity=".55"/>
      <stop offset="1" stop-color="#ff8a4c" stop-opacity="0"/>
    </radialGradient>
    <radialGradient id="glow2" cx=".28" cy=".72" r=".42">
      <stop offset="0" stop-color="#10b981" stop-opacity=".32"/>
      <stop offset="1" stop-color="#10b981" stop-opacity="0"/>
    </radialGradient>
    <filter id="shadow" x="-20%" y="-20%" width="140%" height="140%">
      <feDropShadow dx="0" dy="28" stdDeviation="22" flood-color="#050712" flood-opacity=".34"/>
    </filter>
  </defs>
  <rect width="1400" height="620" fill="url(#bg)"/>
  <rect width="1400" height="620" fill="url(#glow1)"/>
  <rect width="1400" height="620" fill="url(#glow2)"/>
  <g opacity=".16" stroke="#fff" stroke-width="1">
    <path d="M0 105h1400M0 225h1400M0 345h1400M0 465h1400"/>
    <path d="M128 0v620M348 0v620M568 0v620M788 0v620M1008 0v620M1228 0v620"/>
  </g>
  <g filter="url(#shadow)" transform="translate(750 74)">
    <ellipse cx="260" cy="238" rx="230" ry="118" fill="#fff7ed"/>
    <ellipse cx="260" cy="226" rx="184" ry="86" fill="#fee2c6"/>
    <circle cx="182" cy="212" r="34" fill="#ef4444"/>
    <circle cx="258" cy="184" r="34" fill="#f59e0b"/>
    <circle cx="326" cy="230" r="36" fill="#10b981"/>
    <circle cx="236" cy="268" r="33" fill="#f97316"/>
    <path d="M131 242c74 56 199 69 291 13" fill="none" stroke="#7c2d12" stroke-width="14" stroke-linecap="round"/>
  </g>
  <g filter="url(#shadow)" transform="translate(920 344)">
    <ellipse cx="126" cy="72" rx="128" ry="62" fill="#ffffff"/>
    <ellipse cx="126" cy="62" rx="96" ry="42" fill="#fef3c7"/>
    <path d="M48 67c36-34 72-43 107-24 22 12 36 10 58-4" fill="none" stroke="#ea580c" stroke-width="22" stroke-linecap="round"/>
    <circle cx="93" cy="54" r="11" fill="#16a34a"/>
    <circle cx="159" cy="71" r="10" fill="#dc2626"/>
  </g>
  <g filter="url(#shadow)" transform="translate(1090 168)">
    <rect x="0" y="62" width="150" height="92" rx="18" fill="#fde68a"/>
    <path d="M16 64c25-48 91-58 120 0" fill="#f97316"/>
    <path d="M21 102h110" stroke="#7c2d12" stroke-width="13" stroke-linecap="round"/>
    <path d="M25 131h100" stroke="#16a34a" stroke-width="12" stroke-linecap="round"/>
  </g>
  <g transform="translate(96 92)" opacity=".95">
    <rect x="0" y="0" width="380" height="92" rx="8" fill="#ffffff" opacity=".08"/>
    <rect x="28" y="28" width="170" height="14" rx="7" fill="#ffffff" opacity=".58"/>
    <rect x="28" y="54" width="286" height="10" rx="5" fill="#ffffff" opacity=".28"/>
  </g>
</svg>
